<svg
   xmlns:dc="http://purl.org/dc/elements/1.1/"
   xmlns:cc="http://creativecommons.org/ns#"
   xmlns:rdf="http://www.w3.org/1999/02/22-rdf-syntax-ns#"
   xmlns:svg="http://www.w3.org/2000/svg"
   xmlns="http://www.w3.org/2000/svg"
   xmlns:sodipodi="http://sodipodi.sourceforge.net/DTD/sodipodi-0.dtd"
   xmlns:inkscape="http://www.inkscape.org/namespaces/inkscape"
   version="1.1"
   x="0px"
   y="0px"
   viewBox="0 0 84.863 112.5"
   enable-background="new 0 0 84.863 90"
   xml:space="preserve"
   id="svg8"
   sodipodi:docname="paper.svg"
   inkscape:version="0.92.3 (2405546, 2018-03-11)"><metadata
     id="metadata14"><rdf:RDF><cc:Work
         rdf:about=""><dc:format>image/svg+xml</dc:format><dc:type
           rdf:resource="http://purl.org/dc/dcmitype/StillImage" /></cc:Work></rdf:RDF></metadata><defs
     id="defs12" /><sodipodi:namedview
     pagecolor="#ffffff"
     bordercolor="#666666"
     borderopacity="1"
     objecttolerance="10"
     gridtolerance="10"
     guidetolerance="10"
     inkscape:pageopacity="0"
     inkscape:pageshadow="2"
     inkscape:window-width="695"
     inkscape:window-height="480"
     id="namedview10"
     showgrid="false"
     inkscape:zoom="2.0977778"
     inkscape:cx="42.431499"
     inkscape:cy="56.25"
     inkscape:window-x="0"
     inkscape:window-y="0"
     inkscape:window-maximized="0"
     inkscape:current-layer="svg8" /><path
     d="M 73.904975,72.076 V 32.987 c 0,-3.862 -3.129,-6.996 -6.992,-6.996 -1.42,0.001 -2.727,0.439 -3.828,1.163 v -4.447 c 0,-3.864 -3.133,-6.994 -6.996,-6.996 -1.527,10e-4 -2.938,0.495 -4.088,1.327 -0.822,-2.949 -3.521,-5.113 -6.73,-5.113 -3.861,10e-4 -6.991,3.131 -6.993,6.997 v 1.201 c -1.102,-0.725 -2.408,-1.162 -3.825,-1.164 -3.864,0.002 -6.995,3.131 -6.997,6.995 v 22.014 c -0.898,-1.271 -2.475,-2.286 -4.441,-2.26 -1.185,0.002 -2.474,0.322 -3.908,0.975 -0.479,0.218 -0.801,0.677 -0.843,1.203 0,0 -0.004,0.05 -0.028,0.224 -0.17,1.214 -1.236,7.072 -6.974,14.417 -0.226,0.288 -0.333,0.648 -0.303,1.013 0.008,0.063 0.745,9.061 3.72,18.184 1.494,4.564 3.536,9.17 6.437,12.739 2.872,3.55 6.756,6.112 11.62,6.112 h 0.029 c 0.094,-0.002 0.144,-0.002 0.158,-0.002 l 24.926,0.002 c 8.869,-0.002 16.058,-7.189 16.058,-16.055 V 72.095 c 0,-0.007 0.002,-0.013 0.002,-0.019 z m -46.45,-11.856 v 8.983 l -1.17,-0.347 c -0.121,-0.121 -0.456,-0.542 -0.479,-1.952 -0.004,-1.311 0.368,-3.452 1.649,-6.684 z m 30.394,37.457 c 0,0 -25.046,0.002 -25.083,0.002 -3.824,-0.014 -6.827,-1.912 -9.401,-5.047 -3.836,-4.688 -6.294,-12.068 -7.696,-18.238 -0.707,-3.088 -1.162,-5.872 -1.442,-7.881 -0.168,-1.205 -0.27,-2.121 -0.326,-2.662 5.289,-6.932 6.744,-12.676 7.125,-14.828 0.818,-0.304 1.479,-0.416 1.989,-0.414 1.076,0.025 1.58,0.39 2.128,1.11 1.015,1.352 1.276,4.155 1.248,5.395 0,0.149 -0.002,0.274 -0.004,0.371 -2.645,5.475 -3.47,8.996 -3.478,11.42 -0.072,3.228 1.769,4.526 2.212,4.623 l 3.373,1.009 c 0.225,0.066 1.185,0.135 1.185,0.135 0,0 0.515,0.014 1.41,0.139 2.747,0.361 8.297,1.832 10.297,6.32 0.244,0.53 0.77,0.844 1.316,0.844 0.204,0 0.409,-0.043 0.605,-0.136 0.727,-0.334 1.045,-1.194 0.71,-1.921 -1.874,-4.04 -5.534,-6.047 -8.567,-7.058 -2.214,-0.733 -4.156,-0.972 -5.095,-1.048 V 25.954 c 0.004,-2.263 1.835,-4.092 4.097,-4.096 1.746,-0.004 3.237,1.096 3.826,2.638 0,0 -10e-4,31.867 -10e-4,31.881 -0.003,0.802 0.64,1.453 1.44,1.457 0.8,0.005 1.454,-0.641 1.458,-1.442 v -37.47 c 0.004,-2.265 1.835,-4.094 4.095,-4.098 2.263,0.004 4.093,1.833 4.097,4.098 v 39.627 c 0,0.799 0.649,1.449 1.449,1.449 0.801,0 1.45,-0.65 1.45,-1.449 h -0.002 v -37.3 c 0.59,-1.543 2.076,-2.641 3.824,-2.639 2.264,0.004 4.094,1.835 4.098,4.097 v 37.354 c 0,0.799 0.648,1.45 1.449,1.45 0.801,0 1.451,-0.651 1.451,-1.45 h -0.002 V 31.525 c 0.592,-1.54 2.08,-2.637 3.828,-2.635 2.262,0.004 4.09,1.834 4.094,4.097 V 72.08 84.52 c -0.013,7.265 -5.89,13.143 -13.157,13.157 z"
     id="path2"
     inkscape:connector-curvature="0" /></svg>